<svg width="256" height="256" viewBox="0 0 256 256" fill="none" xmlns="http://www.w3.org/2000/svg" role="img" aria-labelledby="title desc">
  <title id="title">CoboRouter icon</title>
  <desc id="desc">A CoboRouter monogram showing wallet policy, model routing, and on-chain receipt flow.</desc>
  <defs>
    <linearGradient id="bg" x1="34" y1="28" x2="226" y2="228" gradientUnits="userSpaceOnUse">
      <stop stop-color="#07111F"/>
      <stop offset="0.48" stop-color="#0F172A"/>
      <stop offset="1" stop-color="#172033"/>
    </linearGradient>
    <linearGradient id="route" x1="55" y1="83" x2="205" y2="175" gradientUnits="userSpaceOnUse">
      <stop stop-color="#38BDF8"/>
      <stop offset="0.52" stop-color="#22C55E"/>
      <stop offset="1" stop-color="#F97316"/>
    </linearGradient>
    <filter id="shadow" x="-25%" y="-25%" width="150%" height="150%" color-interpolation-filters="sRGB">
      <feDropShadow dx="0" dy="14" stdDeviation="14" flood-color="#020617" flood-opacity="0.34"/>
    </filter>
  </defs>
  <rect x="18" y="18" width="220" height="220" rx="52" fill="url(#bg)"/>
  <path d="M64 128C64 92.65 92.65 64 128 64C151.06 64 171.28 76.2 182.55 94.49" stroke="#E2E8F0" stroke-width="18" stroke-linecap="round"/>
  <path d="M192 128C192 163.35 163.35 192 128 192C105.21 192 85.2 180.08 73.86 162.14" stroke="#E2E8F0" stroke-width="18" stroke-linecap="round"/>
  <g filter="url(#shadow)">
    <path d="M64 143H168" stroke="url(#route)" stroke-width="16" stroke-linecap="round"/>
    <path d="M164 111L204 143L164 175V111Z" fill="#F97316"/>
    <circle cx="64" cy="143" r="18" fill="#38BDF8"/>
    <circle cx="128" cy="143" r="18" fill="#22C55E"/>
    <circle cx="192" cy="143" r="18" fill="#F97316"/>
  </g>
  <path d="M91 105H139C153.36 105 165 116.64 165 131V143" stroke="#93C5FD" stroke-width="12" stroke-linecap="round"/>
  <path d="M91 181H139C153.36 181 165 169.36 165 155V143" stroke="#A7F3D0" stroke-width="12" stroke-linecap="round"/>
  <text x="76" y="91" fill="#F8FAFC" font-family="ui-sans-serif, system-ui, -apple-system, BlinkMacSystemFont, 'Segoe UI', sans-serif" font-size="34" font-weight="900" letter-spacing="0">CR</text>
</svg>
